<mxfile host="app.diagrams.net" agent="Mozilla/5.0 (Windows NT 10.0; Win64; x64) AppleWebKit/537.36 (KHTML, like Gecko) Chrome/132.0.0.0 Safari/537.36" version="26.0.10">
  <diagram name="Page-1" id="kcW0dmkH_j5ewg9E619p">
    <mxGraphModel dx="947" dy="1013" grid="1" gridSize="10" guides="1" tooltips="1" connect="1" arrows="1" fold="1" page="1" pageScale="1" pageWidth="850" pageHeight="1100" math="0" shadow="0">
      <root>
        <mxCell id="0" />
        <mxCell id="1" parent="0" />
        <mxCell id="aPpnV9XZNn8Hp2kHfxsP-50" value="" style="rounded=0;whiteSpace=wrap;html=1;" vertex="1" parent="1">
          <mxGeometry x="180" y="10" width="530" height="680" as="geometry" />
        </mxCell>
        <mxCell id="aPpnV9XZNn8Hp2kHfxsP-1" value="Railway&amp;nbsp;&lt;div&gt;reservation&lt;/div&gt;&lt;div&gt;system&lt;/div&gt;" style="shape=umlActor;verticalLabelPosition=bottom;verticalAlign=top;html=1;outlineConnect=0;" vertex="1" parent="1">
          <mxGeometry x="730" y="220" width="30" height="60" as="geometry" />
        </mxCell>
        <mxCell id="aPpnV9XZNn8Hp2kHfxsP-3" value="Passenger" style="shape=umlActor;verticalLabelPosition=bottom;verticalAlign=top;html=1;outlineConnect=0;" vertex="1" parent="1">
          <mxGeometry x="120" y="90" width="30" height="60" as="geometry" />
        </mxCell>
        <mxCell id="aPpnV9XZNn8Hp2kHfxsP-18" style="edgeStyle=orthogonalEdgeStyle;rounded=0;orthogonalLoop=1;jettySize=auto;html=1;exitX=1;exitY=0.5;exitDx=0;exitDy=0;" edge="1" parent="1" source="aPpnV9XZNn8Hp2kHfxsP-6">
          <mxGeometry relative="1" as="geometry">
            <mxPoint x="640" y="195" as="targetPoint" />
          </mxGeometry>
        </mxCell>
        <mxCell id="aPpnV9XZNn8Hp2kHfxsP-23" style="edgeStyle=orthogonalEdgeStyle;rounded=0;orthogonalLoop=1;jettySize=auto;html=1;exitX=0;exitY=0.5;exitDx=0;exitDy=0;" edge="1" parent="1" source="aPpnV9XZNn8Hp2kHfxsP-6">
          <mxGeometry relative="1" as="geometry">
            <mxPoint x="210" y="120" as="targetPoint" />
          </mxGeometry>
        </mxCell>
        <mxCell id="aPpnV9XZNn8Hp2kHfxsP-6" value="fillform" style="ellipse;whiteSpace=wrap;html=1;" vertex="1" parent="1">
          <mxGeometry x="400" y="160" width="140" height="70" as="geometry" />
        </mxCell>
        <mxCell id="aPpnV9XZNn8Hp2kHfxsP-33" style="edgeStyle=orthogonalEdgeStyle;rounded=0;orthogonalLoop=1;jettySize=auto;html=1;exitX=1;exitY=0.5;exitDx=0;exitDy=0;" edge="1" parent="1" source="aPpnV9XZNn8Hp2kHfxsP-7">
          <mxGeometry relative="1" as="geometry">
            <mxPoint x="640" y="265" as="targetPoint" />
          </mxGeometry>
        </mxCell>
        <mxCell id="aPpnV9XZNn8Hp2kHfxsP-40" style="edgeStyle=orthogonalEdgeStyle;rounded=0;orthogonalLoop=1;jettySize=auto;html=1;exitX=0;exitY=0.5;exitDx=0;exitDy=0;" edge="1" parent="1" source="aPpnV9XZNn8Hp2kHfxsP-7">
          <mxGeometry relative="1" as="geometry">
            <mxPoint x="210" y="265" as="targetPoint" />
          </mxGeometry>
        </mxCell>
        <mxCell id="aPpnV9XZNn8Hp2kHfxsP-7" value="book ticket" style="ellipse;whiteSpace=wrap;html=1;" vertex="1" parent="1">
          <mxGeometry x="400" y="235" width="140" height="60" as="geometry" />
        </mxCell>
        <mxCell id="aPpnV9XZNn8Hp2kHfxsP-17" style="edgeStyle=orthogonalEdgeStyle;rounded=0;orthogonalLoop=1;jettySize=auto;html=1;exitX=1;exitY=0.5;exitDx=0;exitDy=0;" edge="1" parent="1" source="aPpnV9XZNn8Hp2kHfxsP-8" target="aPpnV9XZNn8Hp2kHfxsP-1">
          <mxGeometry relative="1" as="geometry">
            <mxPoint x="640" y="330" as="targetPoint" />
            <Array as="points">
              <mxPoint x="641" y="120" />
              <mxPoint x="641" y="250" />
            </Array>
          </mxGeometry>
        </mxCell>
        <mxCell id="aPpnV9XZNn8Hp2kHfxsP-31" style="edgeStyle=orthogonalEdgeStyle;rounded=0;orthogonalLoop=1;jettySize=auto;html=1;exitX=0;exitY=0.5;exitDx=0;exitDy=0;" edge="1" parent="1" source="aPpnV9XZNn8Hp2kHfxsP-8">
          <mxGeometry relative="1" as="geometry">
            <mxPoint x="160" y="118" as="targetPoint" />
          </mxGeometry>
        </mxCell>
        <mxCell id="aPpnV9XZNn8Hp2kHfxsP-8" value="ticket availability" style="ellipse;whiteSpace=wrap;html=1;" vertex="1" parent="1">
          <mxGeometry x="400" y="85" width="140" height="65" as="geometry" />
        </mxCell>
        <mxCell id="aPpnV9XZNn8Hp2kHfxsP-16" style="edgeStyle=orthogonalEdgeStyle;rounded=0;orthogonalLoop=1;jettySize=auto;html=1;exitX=1;exitY=0.5;exitDx=0;exitDy=0;" edge="1" parent="1" source="aPpnV9XZNn8Hp2kHfxsP-9">
          <mxGeometry relative="1" as="geometry">
            <mxPoint x="640" y="160" as="targetPoint" />
          </mxGeometry>
        </mxCell>
        <mxCell id="aPpnV9XZNn8Hp2kHfxsP-9" value="login" style="ellipse;whiteSpace=wrap;html=1;" vertex="1" parent="1">
          <mxGeometry x="400" y="20" width="140" height="60" as="geometry" />
        </mxCell>
        <mxCell id="aPpnV9XZNn8Hp2kHfxsP-19" style="edgeStyle=orthogonalEdgeStyle;rounded=0;orthogonalLoop=1;jettySize=auto;html=1;exitX=1;exitY=0.5;exitDx=0;exitDy=0;" edge="1" parent="1" source="aPpnV9XZNn8Hp2kHfxsP-10">
          <mxGeometry relative="1" as="geometry">
            <mxPoint x="640" y="545" as="targetPoint" />
          </mxGeometry>
        </mxCell>
        <mxCell id="aPpnV9XZNn8Hp2kHfxsP-37" style="edgeStyle=orthogonalEdgeStyle;rounded=0;orthogonalLoop=1;jettySize=auto;html=1;exitX=0;exitY=0.5;exitDx=0;exitDy=0;" edge="1" parent="1" source="aPpnV9XZNn8Hp2kHfxsP-10">
          <mxGeometry relative="1" as="geometry">
            <mxPoint x="130" y="380" as="targetPoint" />
          </mxGeometry>
        </mxCell>
        <mxCell id="aPpnV9XZNn8Hp2kHfxsP-10" value="print ticket" style="ellipse;whiteSpace=wrap;html=1;" vertex="1" parent="1">
          <mxGeometry x="410" y="510" width="140" height="70" as="geometry" />
        </mxCell>
        <mxCell id="aPpnV9XZNn8Hp2kHfxsP-36" style="edgeStyle=orthogonalEdgeStyle;rounded=0;orthogonalLoop=1;jettySize=auto;html=1;exitX=1;exitY=0.5;exitDx=0;exitDy=0;" edge="1" parent="1" source="aPpnV9XZNn8Hp2kHfxsP-11">
          <mxGeometry relative="1" as="geometry">
            <mxPoint x="640" y="469.7058823529412" as="targetPoint" />
          </mxGeometry>
        </mxCell>
        <mxCell id="aPpnV9XZNn8Hp2kHfxsP-39" style="edgeStyle=orthogonalEdgeStyle;rounded=0;orthogonalLoop=1;jettySize=auto;html=1;exitX=0;exitY=0.5;exitDx=0;exitDy=0;" edge="1" parent="1" source="aPpnV9XZNn8Hp2kHfxsP-11">
          <mxGeometry relative="1" as="geometry">
            <mxPoint x="210" y="190" as="targetPoint" />
          </mxGeometry>
        </mxCell>
        <mxCell id="aPpnV9XZNn8Hp2kHfxsP-11" value="cancel ticket" style="ellipse;whiteSpace=wrap;html=1;" vertex="1" parent="1">
          <mxGeometry x="410" y="440" width="140" height="60" as="geometry" />
        </mxCell>
        <mxCell id="aPpnV9XZNn8Hp2kHfxsP-34" style="edgeStyle=orthogonalEdgeStyle;rounded=0;orthogonalLoop=1;jettySize=auto;html=1;exitX=1;exitY=0.5;exitDx=0;exitDy=0;" edge="1" parent="1" source="aPpnV9XZNn8Hp2kHfxsP-12">
          <mxGeometry relative="1" as="geometry">
            <mxPoint x="640" y="329.7058823529412" as="targetPoint" />
          </mxGeometry>
        </mxCell>
        <mxCell id="aPpnV9XZNn8Hp2kHfxsP-41" style="edgeStyle=orthogonalEdgeStyle;rounded=0;orthogonalLoop=1;jettySize=auto;html=1;exitX=0;exitY=0.5;exitDx=0;exitDy=0;" edge="1" parent="1" source="aPpnV9XZNn8Hp2kHfxsP-12">
          <mxGeometry relative="1" as="geometry">
            <mxPoint x="210" y="329.7058823529412" as="targetPoint" />
          </mxGeometry>
        </mxCell>
        <mxCell id="aPpnV9XZNn8Hp2kHfxsP-12" value="pay fare amt" style="ellipse;whiteSpace=wrap;html=1;" vertex="1" parent="1">
          <mxGeometry x="407.5" y="300" width="132.5" height="60" as="geometry" />
        </mxCell>
        <mxCell id="aPpnV9XZNn8Hp2kHfxsP-20" style="edgeStyle=orthogonalEdgeStyle;rounded=0;orthogonalLoop=1;jettySize=auto;html=1;exitX=1;exitY=0.5;exitDx=0;exitDy=0;" edge="1" parent="1" source="aPpnV9XZNn8Hp2kHfxsP-13">
          <mxGeometry relative="1" as="geometry">
            <mxPoint x="640" y="250" as="targetPoint" />
          </mxGeometry>
        </mxCell>
        <mxCell id="aPpnV9XZNn8Hp2kHfxsP-38" style="edgeStyle=orthogonalEdgeStyle;rounded=0;orthogonalLoop=1;jettySize=auto;html=1;exitX=0;exitY=0.5;exitDx=0;exitDy=0;" edge="1" parent="1" source="aPpnV9XZNn8Hp2kHfxsP-13">
          <mxGeometry relative="1" as="geometry">
            <mxPoint x="130" y="540" as="targetPoint" />
          </mxGeometry>
        </mxCell>
        <mxCell id="aPpnV9XZNn8Hp2kHfxsP-13" value="refund money" style="ellipse;whiteSpace=wrap;html=1;" vertex="1" parent="1">
          <mxGeometry x="410" y="590" width="140" height="70" as="geometry" />
        </mxCell>
        <mxCell id="aPpnV9XZNn8Hp2kHfxsP-15" value="Admin" style="shape=umlActor;verticalLabelPosition=bottom;verticalAlign=top;html=1;" vertex="1" parent="1">
          <mxGeometry x="120" y="295" width="30" height="60" as="geometry" />
        </mxCell>
        <mxCell id="aPpnV9XZNn8Hp2kHfxsP-21" style="edgeStyle=orthogonalEdgeStyle;rounded=0;orthogonalLoop=1;jettySize=auto;html=1;exitX=0;exitY=0.5;exitDx=0;exitDy=0;" edge="1" parent="1" source="aPpnV9XZNn8Hp2kHfxsP-9">
          <mxGeometry relative="1" as="geometry">
            <mxPoint x="210" y="120" as="targetPoint" />
            <Array as="points">
              <mxPoint x="210" y="45" />
            </Array>
          </mxGeometry>
        </mxCell>
        <mxCell id="aPpnV9XZNn8Hp2kHfxsP-35" style="edgeStyle=orthogonalEdgeStyle;rounded=0;orthogonalLoop=1;jettySize=auto;html=1;exitX=1;exitY=0.5;exitDx=0;exitDy=0;" edge="1" parent="1" source="aPpnV9XZNn8Hp2kHfxsP-32">
          <mxGeometry relative="1" as="geometry">
            <mxPoint x="640" y="400.2941176470588" as="targetPoint" />
          </mxGeometry>
        </mxCell>
        <mxCell id="aPpnV9XZNn8Hp2kHfxsP-42" style="edgeStyle=orthogonalEdgeStyle;rounded=0;orthogonalLoop=1;jettySize=auto;html=1;exitX=0;exitY=0.5;exitDx=0;exitDy=0;" edge="1" parent="1" source="aPpnV9XZNn8Hp2kHfxsP-32">
          <mxGeometry relative="1" as="geometry">
            <mxPoint x="210" y="400.2941176470588" as="targetPoint" />
          </mxGeometry>
        </mxCell>
        <mxCell id="aPpnV9XZNn8Hp2kHfxsP-32" value="cancel ticket" style="ellipse;whiteSpace=wrap;html=1;" vertex="1" parent="1">
          <mxGeometry x="407.5" y="370" width="140" height="60" as="geometry" />
        </mxCell>
      </root>
    </mxGraphModel>
  </diagram>
</mxfile>
